<svg width="16" height="16" viewBox="0 0 16 16" fill="none" xmlns="http://www.w3.org/2000/svg">
<g clip-path="url(#clip0_3056_883)">
<path d="M15.8982 7.64517C15.7702 7.44184 12.7142 2.6665 8.00017 2.6665C3.28617 2.6665 0.23017 7.44184 0.10217 7.64517C0.0354142 7.75142 0 7.87436 0 7.99984C0 8.12532 0.0354142 8.24825 0.10217 8.3545C0.23017 8.55784 3.28617 13.3332 8.00017 13.3332C12.7142 13.3332 15.7702 8.55784 15.8982 8.3545C15.9649 8.24825 16.0003 8.12532 16.0003 7.99984C16.0003 7.87436 15.9649 7.75142 15.8982 7.64517V7.64517ZM8.00017 10.6665C7.47275 10.6665 6.95718 10.5101 6.51865 10.2171C6.08012 9.92407 5.73833 9.5076 5.53649 9.02033C5.33466 8.53306 5.28185 7.99688 5.38474 7.4796C5.48764 6.96231 5.74161 6.48716 6.11455 6.11422C6.48749 5.74128 6.96265 5.4873 7.47993 5.38441C7.99721 5.28152 8.53339 5.33432 9.02066 5.53616C9.50793 5.73799 9.92441 6.07979 10.2174 6.51832C10.5104 6.95685 10.6668 7.47242 10.6668 7.99984C10.6668 8.70708 10.3859 9.38536 9.88579 9.88546C9.38569 10.3856 8.70741 10.6665 8.00017 10.6665Z" fill="#898989"/>
<line x1="14.3889" y1="1.38891" x2="0.388909" y2="15.3889" stroke="#898989" stroke-width="1.1"/>
</g>
<defs>
<clipPath id="clip0_3056_883">
<rect width="16" height="16" fill="white"/>
</clipPath>
</defs>
</svg>
