<svg width="40" height="40" viewBox="0 0 40 40" fill="none" xmlns="http://www.w3.org/2000/svg">
<rect width="40" height="40" rx="10" fill="#52D5BA"/>
<g clip-path="url(#clip0_3143_7668)">
<path d="M19.1667 30H25C25.9208 30 26.6667 29.2542 26.6667 28.3334V13.3334H19.1667V30ZM23.3333 21.6667V26.6667H21.6667V21.6667H23.3333Z" fill="white"/>
<path d="M13.3342 13.3334V28.3334C13.3342 29.2542 14.08 30 15.0008 30H17.5V13.3334H13.3342Z" fill="white"/>
<path d="M30 15.8333H28.3333V11.6667H11.6667V15.8333H10V10.8333C10 10.3725 10.3733 10 10.8333 10H29.1667C29.6267 10 30 10.3725 30 10.8333V15.8333Z" fill="white"/>
</g>
<defs>
<clipPath id="clip0_3143_7668">
<rect width="20" height="20" fill="white" transform="translate(10 10)"/>
</clipPath>
</defs>
</svg>
