<svg width="40" height="40" viewBox="0 0 40 40" fill="none" xmlns="http://www.w3.org/2000/svg">
<rect width="40" height="40" rx="10" fill="#FFAF2A"/>
<path d="M26.8039 15.0564C26.8027 15.0646 26.8024 15.0665 26.8002 15.0812C26.8002 15.0812 26.802 15.0693 26.8039 15.0564Z" fill="white"/>
<path d="M26.804 15.0564C26.8097 15.0182 26.8073 15.0337 26.804 15.0564V15.0564Z" fill="white"/>
<path d="M25.9571 11.5081C25.031 10.4525 23.357 10 21.2155 10H15C14.5619 10 14.1896 10.3187 14.121 10.7507L11.533 27.1642C11.4816 27.4878 11.7322 27.781 12.0602 27.781H15.8974L16.8611 21.6685L16.8312 21.8599C16.8998 21.4279 17.2693 21.1092 17.7069 21.1092H19.5304C23.1125 21.1092 25.9173 19.6542 26.7366 15.4453C26.7609 15.3209 26.8002 15.0813 26.8002 15.0813C27.0326 13.5239 26.7986 12.4668 25.9571 11.5081Z" fill="white"/>
<path d="M27.7715 15.8784C26.8805 20.0222 24.0387 22.2155 19.5304 22.2155H17.8951L16.6756 30.0001H19.328C19.7108 30.0001 20.0367 29.7212 20.0964 29.3434L20.1279 29.1785L20.7376 25.3148L20.7769 25.1013C20.8366 24.7234 21.1624 24.4446 21.5453 24.4446H22.0293C25.1628 24.4446 27.6163 23.1717 28.3333 19.49C28.6206 18.013 28.4829 16.7738 27.7715 15.8784Z" fill="white"/>
</svg>
