<svg width="40" height="40" viewBox="0 0 40 40" fill="none" xmlns="http://www.w3.org/2000/svg">
<rect width="40" height="40" rx="10" fill="#0890FE"/>
<g clip-path="url(#clip0_3143_14915)">
<path d="M19.1667 21.6667C18.9457 21.6667 18.7337 21.5789 18.5774 21.4226C18.4211 21.2663 18.3333 21.0543 18.3333 20.8333V11.6667C18.3333 11.2246 18.5089 10.8007 18.8215 10.4882C19.1341 10.1756 19.558 10 20 10H28.3333C28.7754 10 29.1993 10.1756 29.5119 10.4882C29.8244 10.8007 30 11.2246 30 11.6667V17.5C30 17.942 29.8244 18.366 29.5119 18.6785C29.1993 18.9911 28.7754 19.1667 28.3333 19.1667H22.7775L19.6667 21.5C19.5224 21.6082 19.347 21.6667 19.1667 21.6667Z" fill="white"/>
<path d="M23.3333 20.8334V26.6667C23.3333 26.8878 23.2455 27.0997 23.0893 27.256C22.933 27.4123 22.721 27.5001 22.5 27.5001H14.1667C13.9457 27.5001 13.7337 27.4123 13.5774 27.256C13.4211 27.0997 13.3333 26.8878 13.3333 26.6667V15.0001C13.3333 14.7791 13.4211 14.5671 13.5774 14.4108C13.7337 14.2545 13.9457 14.1667 14.1667 14.1667H16.6667V11.6667H14.1667C13.5036 11.6667 12.8677 11.9301 12.3989 12.399C11.9301 12.8678 11.6667 13.5037 11.6667 14.1667V27.5001C11.6667 28.1631 11.9301 28.799 12.3989 29.2678C12.8677 29.7367 13.5036 30.0001 14.1667 30.0001H22.5C23.163 30.0001 23.7989 29.7367 24.2678 29.2678C24.7366 28.799 25 28.1631 25 27.5001V20.8334H23.3333Z" fill="white"/>
</g>
<defs>
<clipPath id="clip0_3143_14915">
<rect width="20" height="20" fill="white" transform="translate(10 10)"/>
</clipPath>
</defs>
</svg>
