<svg width="28" height="28" viewBox="0 0 28 28" fill="none" xmlns="http://www.w3.org/2000/svg">
<path d="M21 0H7C6.07174 0 5.1815 0.368749 4.52513 1.02513C3.86875 1.6815 3.5 2.57174 3.5 3.5V24.5C3.5 25.4283 3.86875 26.3185 4.52513 26.9749C5.1815 27.6313 6.07174 28 7 28H21C21.9283 28 22.8185 27.6313 23.4749 26.9749C24.1313 26.3185 24.5 25.4283 24.5 24.5V3.5C24.5 2.57174 24.1313 1.6815 23.4749 1.02513C22.8185 0.368749 21.9283 0 21 0V0ZM22.1667 23.3333C22.1667 23.6428 22.0438 23.9395 21.825 24.1583C21.6062 24.3771 21.3094 24.5 21 24.5H7C6.69058 24.5 6.39383 24.3771 6.17504 24.1583C5.95625 23.9395 5.83333 23.6428 5.83333 23.3333V4.66667C5.83333 4.35725 5.95625 4.0605 6.17504 3.84171C6.39383 3.62292 6.69058 3.5 7 3.5H21C21.3094 3.5 21.6062 3.62292 21.825 3.84171C22.0438 4.0605 22.1667 4.35725 22.1667 4.66667V23.3333Z" fill="#FFAF2A"/>
<path d="M18.137 14.6789C17.3654 13.9602 16.4443 13.4211 15.4397 13.1004L14.6604 12.8029V9.06958C15.7591 9.1604 16.8379 9.41604 17.8605 9.82791L18.6084 7.95191C17.3531 7.4389 16.0158 7.15594 14.6604 7.11658V5.41675H13.3V7.13758C12.2155 7.20146 11.1745 7.5869 10.3099 8.24475C9.95821 8.52189 9.6757 8.87689 9.48458 9.28179C9.29347 9.6867 9.19897 10.1304 9.20854 10.5781C9.18389 11.3871 9.4594 12.1767 9.98204 12.7947C10.662 13.4994 11.5027 14.0286 12.432 14.3371L13.2942 14.6556V18.4904C12.5807 18.4705 11.8718 18.3691 11.1814 18.1882C10.4708 18.02 9.77979 17.7776 9.11987 17.4649V19.6314C10.4445 20.1702 11.8644 20.4353 13.2942 20.4107V22.5714H14.6569V20.3466C15.801 20.2845 16.8976 19.8687 17.7952 19.1566C18.1478 18.8549 18.4288 18.4786 18.6179 18.0548C18.807 17.631 18.8994 17.1705 18.8884 16.7066C18.907 15.9594 18.638 15.2336 18.137 14.6789V14.6789ZM13.2919 12.2966C12.8042 12.1345 12.3556 11.8727 11.9747 11.5277C11.7293 11.2639 11.598 10.9138 11.6095 10.5536C11.6068 10.3744 11.6441 10.1968 11.7185 10.0337C11.793 9.87067 11.9028 9.72624 12.04 9.61091C12.4008 9.32722 12.8351 9.15274 13.2919 9.10808V12.2966ZM14.6545 18.4041V15.1374C15.1594 15.2955 15.6305 15.5459 16.044 15.8759C16.18 15.9996 16.2875 16.1512 16.3592 16.3204C16.4309 16.4895 16.4651 16.6723 16.4594 16.8559C16.4609 17.7029 15.8593 18.219 14.6545 18.4041V18.4041Z" fill="#FFAF2A"/>
</svg>
