<svg width="28" height="28" viewBox="0 0 28 28" fill="none" xmlns="http://www.w3.org/2000/svg">
<g clip-path="url(#clip0_3064_376)">
<path d="M19.25 8.16677H10.0532C8.80367 6.03644 6.6955 5.70627 5.66767 5.84511L4.33767 6.03527L5.537 10.1524C4.6375 10.8909 3.8955 11.7986 3.35067 12.8334H0V21.0001H3.34367C4.75883 23.6869 7.46083 25.4253 10.5 25.6271V28.0001H12.8333V25.6668H17.5V28.0001H19.8333V25.6376C24.3857 25.3354 28 21.5449 28 16.9168C28 12.0914 24.0753 8.16677 19.25 8.16677ZM19.8333 15.1668H11.6667V12.8334H19.8333V15.1668Z" fill="#5655B9"/>
<path d="M15.7499 5.83333C17.3607 5.83333 18.6666 4.5275 18.6666 2.91667C18.6666 1.30584 17.3607 0 15.7499 0C14.1391 0 12.8333 1.30584 12.8333 2.91667C12.8333 4.5275 14.1391 5.83333 15.7499 5.83333Z" fill="#5655B9"/>
</g>
<defs>
<clipPath id="clip0_3064_376">
<rect width="28" height="28" fill="white"/>
</clipPath>
</defs>
</svg>
